<?xml version="1.0" encoding="UTF-8" standalone="no"?>
<!-- Uploaded to: SVG Repo, www.svgrepo.com, Generator: SVG Repo Mixer Tools -->

<svg
   fill="#000000"
   height="200"
   width="200"
   version="1.1"
   id="Layer_1"
   viewBox="0 0 128 128"
   xml:space="preserve"
   sodipodi:docname="return.svg"
   inkscape:version="1.2.2 (732a01da63, 2022-12-09)"
   xmlns:inkscape="http://www.inkscape.org/namespaces/inkscape"
   xmlns:sodipodi="http://sodipodi.sourceforge.net/DTD/sodipodi-0.dtd"
   xmlns="http://www.w3.org/2000/svg"
   xmlns:svg="http://www.w3.org/2000/svg"><defs
   id="defs11" /><sodipodi:namedview
   id="namedview9"
   pagecolor="#ffffff"
   bordercolor="#000000"
   borderopacity="0.25"
   inkscape:showpageshadow="2"
   inkscape:pageopacity="0.0"
   inkscape:pagecheckerboard="0"
   inkscape:deskcolor="#d1d1d1"
   showgrid="false"
   inkscape:zoom="1.8561553"
   inkscape:cx="143.0376"
   inkscape:cy="99.668384"
   inkscape:window-width="1366"
   inkscape:window-height="705"
   inkscape:window-x="-8"
   inkscape:window-y="-8"
   inkscape:window-maximized="1"
   inkscape:current-layer="Layer_1" />
<g
   id="g6"
   transform="matrix(0.24375,0,0,0.2438524,1.6,1.5736637)">
	<g
   id="g4">
		<path
   d="M 511.957,185.214 512,15.045 444.413,82.632 436.839,75.058 C 388.507,26.726 324.246,0.108 255.893,0.108 114.792,0.107 0,114.901 0,256 0,397.099 114.792,511.893 255.893,511.893 396.994,511.893 511.785,397.099 511.785,256 h -49.528 c 0,113.79 -92.575,206.365 -206.365,206.365 -113.79,0 -206.364,-92.575 -206.364,-206.365 0,-113.79 92.575,-206.365 206.365,-206.365 55.124,0 106.947,21.467 145.925,60.445 l 7.574,7.574 -67.58,67.58 z"
   id="path2" />
	</g>
</g>
</svg>
